<?xml version="1.0" encoding="UTF-8"?>
<svg width="138px" height="60px" viewBox="0 0 138 60" version="1.1" xmlns="http://www.w3.org/2000/svg" xmlns:xlink="http://www.w3.org/1999/xlink">
    <!-- Generator: Sketch 59.1 (86144) - https://sketch.com -->
    <title>logo_dark</title>
    <desc>Created with Sketch.</desc>
    <g id="logo_dark" stroke="none" stroke-width="1" fill="none" fill-rule="evenodd">
        <g id="migo-logo-final-01" fill-rule="nonzero">
            <rect id="Rectangle" fill="#000064" x="54.418" y="17.1461538" width="9.9636" height="28.3384615"></rect>
            <path d="M91.0018,20.1276923 C88.8824654,17.692283 85.8010842,16.3178247 82.5792,16.3707692 C78.6997656,16.3306863 74.9865357,17.9484905 72.3672,20.82 C71.0761292,22.2396676 70.059143,23.8876248 69.368,25.68 C68.619789,27.6065058 68.2450796,29.6586349 68.264,31.7261538 C68.2378937,33.7162239 68.5842903,35.693531 69.2852,37.5553846 C70.55312,40.9415733 73.1802293,43.6377562 76.5256,44.9861538 C78.2911936,45.6985698 80.1794939,46.0545944 82.0824,46.0338462 C82.9311426,46.0392917 83.7788858,45.9744563 84.617,45.84 C85.3737808,45.7149521 86.1133105,45.5011809 86.8204,45.2030769 C87.5435409,44.8967629 88.2339814,44.5179154 88.8812,44.0723077 C89.635417,43.5529593 90.3447818,42.9709095 91.0018,42.3323077 L91.0018,45.0415385 C91.0018,47.1369231 90.4421333,48.7753846 89.3228,49.9569231 C88.2034667,51.1384615 86.5980667,51.7276923 84.5066,51.7246154 C82.0532667,51.7246154 80.4754667,50.7846154 79.7732,48.9046154 L68.54,48.9046154 C68.8293536,50.4381128 69.4289636,51.8958127 70.3018,53.1876923 C71.215341,54.5246793 72.3623306,55.6848867 73.6874,56.6123077 C75.1592894,57.6382052 76.7873963,58.4175717 78.5082,58.92 C82.2562918,59.9637346 86.2094032,60.0193746 89.9852,59.0815385 C91.5554324,58.6821358 93.0642513,58.070379 94.4702,57.2630769 C95.7360426,56.5363788 96.8788124,55.6125624 97.8558,54.5261538 C98.7557866,53.5378025 99.4570912,52.3843806 99.9212,51.1292308 C100.280991,50.0511435 100.539713,48.9417171 100.694,47.8153846 C100.886489,46.4052878 100.978722,44.9832346 100.97,43.56 L100.97,17.16 L91.0018,17.16 L91.0018,20.1276923 Z M90.9742,33.7430769 C90.6412483,34.5109984 90.1738644,35.2128558 89.5942,35.8153846 C89.0168466,36.41236 88.3231813,36.8836819 87.5564,37.2 C86.764109,37.5331304 85.9130371,37.7026583 85.054,37.6984615 C84.1752668,37.706307 83.3039319,37.5367937 82.4918,37.2 C81.7256391,36.8825235 81.0321952,36.4113521 80.454,35.8153846 C79.8800815,35.2148175 79.4229809,34.5120032 79.1062,33.7430769 C78.7705311,32.9298442 78.6015707,32.0571016 78.6094,31.1769231 C78.6036209,30.319479 78.7824997,29.470899 79.1338,28.6892308 C79.4640307,27.9362439 79.9321274,27.2521026 80.5138,26.6723077 C81.1095647,26.0977534 81.7987349,25.6294858 82.5516,25.2876923 C83.3306627,24.9352171 84.1764141,24.7557401 85.031,24.7615385 C85.8718304,24.7609974 86.7041414,24.9305279 87.4782,25.26 C88.2496981,25.5826828 88.951212,26.0529679 89.5436,26.6446154 C90.1232594,27.2366397 90.5908572,27.9294351 90.9236,28.6892308 C91.6293359,30.307468 91.6293359,32.1479166 90.9236,33.7661538 L90.9742,33.7430769 Z" id="Shape" fill="#000064"></path>
            <path d="M136.5234,25.1815385 C135.696135,23.3433862 134.485101,21.7049109 132.9722,20.3769231 C131.38741,18.9958433 129.556657,17.9278557 127.5764,17.2292308 C125.412418,16.4564063 123.129674,16.0720728 120.8328,16.0938462 C118.51535,16.0692528 116.212395,16.4632213 114.034,17.2569231 C112.062,17.9683219 110.240947,19.0455073 108.6658,20.4323077 C107.17766,21.7548682 105.978032,23.3717682 105.1422,25.1815385 C104.295502,27.0262543 103.86363,29.0352695 103.8772,31.0661538 C103.848841,33.2398514 104.279982,35.3948966 105.1422,37.3892308 C105.957497,39.2438571 107.147995,40.9082695 108.6382,42.2769231 C110.179973,43.674284 111.987082,44.7449078 113.9512,45.4246154 C116.109262,46.1804169 118.381561,46.5551947 120.6672,46.5323077 C122.997792,46.5537331 125.315188,46.1792129 127.5212,45.4246154 C129.516579,44.757182 131.358915,43.696414 132.94,42.3046154 C134.44206,40.9666306 135.651253,39.3306463 136.4912,37.5 C137.370098,35.5670704 137.81153,33.4628626 137.7838,31.3384615 C137.812456,29.2188425 137.382431,27.1182192 136.5234,25.1815385 L136.5234,25.1815385 Z M126.753,33.7984615 C126.418323,34.5654367 125.951133,35.2670033 125.373,35.8707692 C124.794805,36.4667367 124.101361,36.9379081 123.3352,37.2553846 C121.731052,37.9197953 119.929948,37.9197953 118.3258,37.2553846 C117.559019,36.9390665 116.865353,36.4677446 116.288,35.8707692 C115.708336,35.2682404 115.240952,34.566383 114.908,33.7984615 C114.550968,32.9714766 114.372259,32.0780893 114.3836,31.1769231 C114.377821,30.319479 114.5567,29.470899 114.908,28.6892308 C115.245827,27.9322643 115.712846,27.2403263 116.288,26.6446154 C116.866611,26.0491462 117.559946,25.5780487 118.3258,25.26 C119.929948,24.5955893 121.731052,24.5955893 123.3352,25.26 C124.100447,25.5791795 124.793568,26.0501317 125.373,26.6446154 C125.950158,27.2491669 126.417227,27.9505506 126.753,28.7169231 C127.102592,29.5089133 127.281301,30.3661286 127.2774,31.2323077 C127.284973,32.1152308 127.106258,32.9897693 126.753,33.7984615 L126.753,33.7984615 Z" id="Shape" fill="#000064"></path>
            <path d="M34.7162,15.8953846 C31.3370842,15.8435208 28.0430892,16.9598586 25.3874,19.0569231 C24.9811747,19.372531 24.4136253,19.372531 24.0074,19.0569231 C21.3517108,16.9598586 18.0577158,15.8435208 14.6786,15.8953846 C6.5458,16.0153846 0.1058,22.8738462 0.1058,31.0338462 L0.1058,45.48 L10.0694,45.48 L10.0694,30.8769231 C10.0411819,28.3462676 11.9242535,26.2037863 14.4302,25.9153846 C15.7847988,25.7840395 17.1317668,26.2321654 18.1397879,27.1495362 C19.1478091,28.0669069 19.7233341,29.3683859 19.7248,30.7338462 L19.7248,45.48 L29.6884,45.48 L29.6884,30.8769231 C29.6575404,28.3486225 31.5366534,26.2061251 34.04,25.9153846 C35.3941733,25.7839552 36.7407224,26.2321975 37.7480404,27.1497255 C38.7553584,28.0672534 39.329836,29.368802 39.33,30.7338462 L39.33,45.48 L49.2936,45.48 L49.2936,31.0338462 C49.289,22.8738462 42.849,16.0153846 34.7162,15.8953846 Z" id="Path" fill="#0000FF"></path>
            <path d="M10.9756,0.143076923 L19.2556,4.93846154 C19.3997228,5.02041287 19.4887962,5.17378756 19.4887962,5.34 C19.4887962,5.50621244 19.3997228,5.65958713 19.2556,5.74153846 L10.9756,10.5369231 C10.8327213,10.6219305 10.6552635,10.6230466 10.5113339,10.539843 C10.3674043,10.4566393 10.2793631,10.302042 10.2809776,10.1353846 L10.2809776,0.544615385 C10.2793631,0.377958044 10.3674043,0.223360686 10.5113339,0.140157034 C10.6552635,0.0569533817 10.8327213,0.0580694598 10.9756,0.143076923 Z" id="Path" fill="#0000FF"></path>
            <path d="M30.7464,0.143076923 L39.0264,4.93846154 C39.1705228,5.02041287 39.2595962,5.17378756 39.2595962,5.34 C39.2595962,5.50621244 39.1705228,5.65958713 39.0264,5.74153846 L30.7464,10.5369231 C30.6037924,10.6195347 30.4280507,10.6193605 30.285606,10.5364663 C30.1431614,10.4535721 30.0557448,10.300604 30.0563963,10.1353846 L30.0563963,0.544615385 C30.0557448,0.379396017 30.1431614,0.226427883 30.285606,0.143533682 C30.4280507,0.0606394801 30.6037924,0.0604652774 30.7464,0.143076923 Z" id="Path" fill="#0000FF"></path>
        </g>
    </g>
</svg>